<?xml version="1.0" encoding="iso-8859-1"?>
<!-- Generator: Adobe Illustrator 16.0.0, SVG Export Plug-In . SVG Version: 6.00 Build 0)  -->
<!DOCTYPE svg PUBLIC "-//W3C//DTD SVG 1.1//EN" "http://www.w3.org/Graphics/SVG/1.1/DTD/svg11.dtd">
<svg xmlns="http://www.w3.org/2000/svg" xmlns:xlink="http://www.w3.org/1999/xlink" version="1.1" id="Capa_1" x="0px" y="0px" width="512px" height="512px" viewBox="0 0 58.04 58.039" style="enable-background:new 0 0 58.04 58.039;" xml:space="preserve">
<g>
	<g>
		<path d="M12.748,21.538c0.504-0.524,1.161-0.998,2.245-1.495c1.481-0.679,2.431-1.181,3.581-2.108    c0.859-0.693,0.988-0.586,0.486,0.398c-0.15,0.293-0.29,0.595-0.417,0.911c-0.416,1.022,0.166,1.385,1.082,0.767    c1.885-1.271,5.025-3.234,7.391-3.91c3.275-0.936,6.929-2.028,11.278-6.456c0.773-0.787,0.826-2.188,0.107-3.027    c-1.356-1.587-3.479-3.167-9.667-3.168c-8.856-0.002-11.578,6.462-12.037,7.31c-1.174,2.168-4.273,6.807-5.072,10.395    C11.485,22.231,11.982,22.334,12.748,21.538z" fill="#FFFFFF"/>
		<path d="M35.923,43.555c-5.902-4.957-11.981-2.437-14.816-0.729c-0.948,0.567-1.437,2.01-1.182,3.085    c0.831,3.501,1.597,6.685,1.597,6.685s1.562,5.241,6.932,5.389c5.369,0.146,6.832-5.075,6.832-5.075s0.718-2.642,1.593-6.039    C37.153,45.8,36.769,44.266,35.923,43.555z M26.464,55.581c-0.09,0.058-0.194,0.086-0.314,0.086c-0.717,0-2.008-1.11-2.419-4.093    c-0.005-0.026-0.129-0.694,0.153-1.062c0.105-0.139,0.254-0.216,0.444-0.228c0.562-0.003,0.694,0.806,0.79,1.396    c0.013,0.08,0.025,0.155,0.038,0.226L25.173,52c0.066,0.374,0.134,0.755,0.463,1.322c0.391,0.674,0.96,1.254,1.047,1.442    c0.057,0.12,0.081,0.248,0.07,0.365C26.738,55.313,26.637,55.471,26.464,55.581z M32.748,51.85c-0.418,2.84-1.662,3.9-2.348,3.9    c-0.119,0-0.221-0.031-0.309-0.088c-0.164-0.107-0.258-0.259-0.273-0.433c-0.011-0.113,0.016-0.235,0.071-0.354    c0.087-0.183,0.64-0.732,1.019-1.373c0.318-0.539,0.389-0.902,0.453-1.261l0.018-0.09c0.014-0.064,0.025-0.139,0.039-0.215    c0.102-0.582,0.24-1.389,0.771-1.332c0.181,0.017,0.323,0.092,0.425,0.226C32.88,51.184,32.756,51.822,32.748,51.85z" fill="#FFFFFF"/>
		<path d="M19.255,22.729l-2.375,1.767c-0.886,0.658-1.445,0.312-1.247-0.774l0.003-0.019c0.198-1.087,0.317-1.948,0.265-1.926    c-0.031,0.016-0.063,0.029-0.095,0.044c-0.304,0.141-0.558,0.27-0.777,0.398c-0.416,0.245-0.594,1.401-0.409,2.49    c0.432,2.549,1.309,6.771,3.019,12.174c0.333,1.053,0.696,2.239,0.792,2.656s0.914,0.245,1.88-0.29    c7.867-4.354,13.816-1.311,16.471,0.668c0.885,0.66,1.512,1.29,1.52,1.263c0.004-0.017,0.008-0.031,0.011-0.049    c1.354-5.613,5.41-10.611,5.618-19.375c0.111-4.736-0.966-8.136-1.981-10.26c-0.478-0.996-1.568-1.069-2.35-0.288    c-4.693,4.698-8.681,5.84-11.945,6.772C24.973,18.749,20.681,21.67,19.255,22.729z M23.311,25.903    c-0.746,0-1.354-0.606-1.354-1.354c0-0.745,0.608-1.354,1.354-1.354s1.354,0.608,1.354,1.354    C24.664,25.297,24.056,25.903,23.311,25.903z M34.358,23.195c0.745,0,1.354,0.608,1.354,1.354    c-0.002,0.747-0.609,1.354-1.354,1.354c-0.746,0-1.354-0.606-1.354-1.354C33.004,23.805,33.612,23.195,34.358,23.195z" fill="#FFFFFF"/>
		<path d="M14.978,10.005c0.034-0.062,0.067-0.122,0.098-0.18c0.021-0.035,0.045-0.085,0.075-0.145    c0.312-0.62,0.655-1.207,1.027-1.761c0.616-0.917,0.492-2.108-0.324-2.854c-2.129-1.943-2.262-3.102-2.376-3.669    c-0.401-2.006-1.26-1.403-1.548-0.916c-1.702,2.741,0.188,6.156,1.672,8.163C14.259,9.533,14.923,10.104,14.978,10.005z" fill="#FFFFFF"/>
		<path d="M45.625,25.1c-0.586,4.399-2.047,7.824-3.366,10.914c-0.824,1.935-1.605,3.762-2.045,5.577    c-1.347,5.575-3.023,11.767-3.041,11.829c-0.222,0.781-0.673,1.801-1.388,2.803c-0.644,0.897-0.435,1.623,0.664,1.734    c0.26,0.024,0.529,0.052,0.806,0.075c1.101,0.092,2.032-0.799,2.146-1.896c0.248-2.431,0.752-6.23,1.063-8.538    c0.148-1.095,0.615-1.296,1.007-0.436c0.391,0.858,1.348,0.917,1.655-0.144c0.566-1.938,0.554-4.879,0.438-6.881    c-0.063-1.104,0.372-1.281,0.927-0.326c0.119,0.205,0.235,0.42,0.35,0.642c0.5,0.983,1.175,1.069,1.342-0.021    c0.502-3.268,0.228-9.804-0.194-15.329C45.903,24.003,45.773,24.005,45.625,25.1z" fill="#FFFFFF"/>
		<path d="M19.889,53.42c-0.017-0.062-1.695-6.254-3.042-11.829c-0.437-1.815-1.152-3.528-1.629-5.577    c-0.775-3.33-1.672-5.668-2.428-9.603c-0.208-1.084-0.419-1.076-0.532,0.021c-0.549,5.27-1.443,10.969-1.262,13.975    c0.066,1.103,0.727,1.027,1.227,0.044c0.112-0.222,0.229-0.435,0.348-0.64c0.554-0.955,0.99-0.776,0.926,0.326    c-0.115,2.002-0.128,4.94,0.438,6.879c0.309,1.062,1.266,1.004,1.656,0.146c0.39-0.86,0.857-0.659,1.006,0.436    c0.313,2.307,0.816,6.107,1.064,8.538c0.112,1.099,1.046,1.988,2.147,1.896c0.273-0.023,0.543-0.051,0.803-0.075    c1.099-0.111,1.308-0.838,0.665-1.734C20.56,55.221,20.108,54.201,19.889,53.42z" fill="#FFFFFF"/>
		<path d="M41.138,6.624c0.038-0.041,0.263,0.221,0.501,0.586s0.495,0.73,0.569,0.817c0.074,0.088,0.129,0.167,0.117,0.18    c-0.01,0.011,0.049,0.121,0.129,0.246l0.147,0.226c0.144,0.215,0.294,0.459,0.452,0.731c0.237,0.409,1.026,0.101,1.684-0.788    c1.48-2.011,3.353-5.409,1.656-8.142c-0.287-0.487-1.148-1.09-1.549,0.916c-0.115,0.573-0.249,1.755-2.459,3.747    c-0.82,0.739-1.5,1.33-1.437,1.411C41.015,6.636,41.099,6.666,41.138,6.624z" fill="#FFFFFF"/>
	</g>
</g>
<g>
</g>
<g>
</g>
<g>
</g>
<g>
</g>
<g>
</g>
<g>
</g>
<g>
</g>
<g>
</g>
<g>
</g>
<g>
</g>
<g>
</g>
<g>
</g>
<g>
</g>
<g>
</g>
<g>
</g>
</svg>
